<?xml version="1.0" encoding="utf-8"?>
<svg version="1.1" xmlns:xlink="http://www.w3.org/1999/xlink" width="150px" height="50px" xmlns="http://www.w3.org/2000/svg">
  <defs>
    <filter x="470px" y="445px" width="150px" height="50px" filterUnits="userSpaceOnUse" id="filter1">
      <feOffset dx="5" dy="5" in="SourceAlpha" result="shadowOffsetInner" />
      <feGaussianBlur stdDeviation="2.5" in="shadowOffsetInner" result="shadowGaussian" />
      <feComposite in2="shadowGaussian" operator="atop" in="SourceAlpha" result="shadowComposite" />
      <feColorMatrix type="matrix" values="0 0 0 0 0  0 0 0 0 0  0 0 0 0 0  0 0 0 0.34901960784313724 0  " in="shadowComposite" />
    </filter>
    <g id="widget2">
      <path d="M 470.5 450  A 4.5 4.5 0 0 1 475 445.5 L 605 445.5  A 4.5 4.5 0 0 1 609.5 450 L 609.5 480  A 4.5 4.5 0 0 1 605 484.5 L 475 484.5  A 4.5 4.5 0 0 1 470.5 480 L 470.5 450  Z " fill-rule="nonzero" fill="#caf982" stroke="none" fill-opacity="0.29411764705882354" />
      <path d="M 470.5 450  A 4.5 4.5 0 0 1 475 445.5 L 605 445.5  A 4.5 4.5 0 0 1 609.5 450 L 609.5 480  A 4.5 4.5 0 0 1 605 484.5 L 475 484.5  A 4.5 4.5 0 0 1 470.5 480 L 470.5 450  Z " stroke-width="1" stroke="#797979" fill="none" />
    </g>
  </defs>
  <g transform="matrix(1 0 0 1 -470 -445 )">
    <use xlink:href="#widget2" filter="url(#filter1)" />
    <use xlink:href="#widget2" />
  </g>
</svg>